<svg width="26.000000" height="26.000000" viewBox="0 0 26 26" fill="none" xmlns="http://www.w3.org/2000/svg" xmlns:xlink="http://www.w3.org/1999/xlink">
	<desc>
			Created with Pixso.
	</desc>
	<defs/>
	<mask id="mask_0_244" fill="white">
		<path id="Combined Shape" d="M12 1C12 0.447693 12.4477 0 13 0C13.5523 0 14 0.447693 14 1L14 4C14 4.55231 13.5523 5 13 5C12.4477 5 12 4.55231 12 4L12 1ZM7.34314 5.92896C7.53839 6.12421 7.63605 6.38013 7.63605 6.63605C7.63605 6.89197 7.53839 7.14789 7.34314 7.34314C6.95264 7.73364 6.31946 7.73364 5.92896 7.34314L3.80762 5.2218C3.61237 5.02655 3.51471 4.77063 3.51471 4.51471C3.51471 4.25879 3.61237 4.00287 3.80762 3.80762C4.19812 3.41711 4.8313 3.41711 5.2218 3.80762L7.34314 5.92896ZM20.7782 3.80762C21.1687 3.41711 21.8019 3.41711 22.1924 3.80762C22.3876 4.00287 22.4853 4.25879 22.4853 4.51471C22.4853 4.77063 22.3876 5.02655 22.1924 5.2218L20.071 7.34314C19.6805 7.73364 19.0474 7.73364 18.6569 7.34314C18.4616 7.14789 18.364 6.89197 18.364 6.63605C18.364 6.38013 18.4616 6.12421 18.6569 5.92896L20.7782 3.80762ZM8 13C8 10.2386 10.2386 8 13 8C15.7614 8 18 10.2386 18 13C18 15.7614 15.7614 18 13 18C10.2386 18 8 15.7614 8 13ZM4 12C4.55231 12 5 12.4477 5 13C5 13.5523 4.55231 14 4 14L1 14C0.447693 14 0 13.5523 0 13C0 12.4477 0.447693 12 1 12L4 12ZM25 12C25.5523 12 26 12.4477 26 13C26 13.5523 25.5523 14 25 14L22 14C21.4477 14 21 13.5523 21 13C21 12.4477 21.4477 12 22 12L25 12ZM5.92896 18.6569C6.31946 18.2664 6.95264 18.2664 7.34314 18.6569C7.53839 18.8521 7.63605 19.108 7.63605 19.364C7.63605 19.6199 7.53839 19.8758 7.34314 20.071L5.2218 22.1924C4.8313 22.5829 4.19812 22.5829 3.80762 22.1924C3.61237 21.9971 3.51471 21.7412 3.51471 21.4853C3.51471 21.2294 3.61237 20.9734 3.80762 20.7782L5.92896 18.6569ZM22.1924 20.7782C22.3876 20.9734 22.4853 21.2294 22.4853 21.4853C22.4853 21.7412 22.3876 21.9971 22.1924 22.1924C21.8019 22.5829 21.1687 22.5829 20.7782 22.1924L18.6569 20.071C18.4616 19.8758 18.364 19.6199 18.364 19.364C18.364 19.108 18.4616 18.8521 18.6569 18.6569C19.0474 18.2664 19.6805 18.2664 20.071 18.6569L22.1924 20.7782ZM12 22C12 21.4477 12.4477 21 13 21C13.5523 21 14 21.4477 14 22L14 25C14 25.5523 13.5523 26 13 26C12.4477 26 12 25.5523 12 25L12 22Z" clip-rule="evenodd" fill="" fill-opacity="1.000000" fill-rule="evenodd"/>
	</mask>
	<path id="Combined Shape" d="M12 1C12 0.447693 12.4477 0 13 0C13.5523 0 14 0.447693 14 1L14 4C14 4.55231 13.5523 5 13 5C12.4477 5 12 4.55231 12 4L12 1ZM7.34314 5.92896C7.53839 6.12421 7.63605 6.38013 7.63605 6.63605C7.63605 6.89197 7.53839 7.14789 7.34314 7.34314C6.95264 7.73364 6.31946 7.73364 5.92896 7.34314L3.80762 5.2218C3.61237 5.02655 3.51471 4.77063 3.51471 4.51471C3.51471 4.25879 3.61237 4.00287 3.80762 3.80762C4.19812 3.41711 4.8313 3.41711 5.2218 3.80762L7.34314 5.92896ZM20.7782 3.80762C21.1687 3.41711 21.8019 3.41711 22.1924 3.80762C22.3876 4.00287 22.4853 4.25879 22.4853 4.51471C22.4853 4.77063 22.3876 5.02655 22.1924 5.2218L20.071 7.34314C19.6805 7.73364 19.0474 7.73364 18.6569 7.34314C18.4616 7.14789 18.364 6.89197 18.364 6.63605C18.364 6.38013 18.4616 6.12421 18.6569 5.92896L20.7782 3.80762ZM8 13C8 10.2386 10.2386 8 13 8C15.7614 8 18 10.2386 18 13C18 15.7614 15.7614 18 13 18C10.2386 18 8 15.7614 8 13ZM4 12C4.55231 12 5 12.4477 5 13C5 13.5523 4.55231 14 4 14L1 14C0.447693 14 0 13.5523 0 13C0 12.4477 0.447693 12 1 12L4 12ZM25 12C25.5523 12 26 12.4477 26 13C26 13.5523 25.5523 14 25 14L22 14C21.4477 14 21 13.5523 21 13C21 12.4477 21.4477 12 22 12L25 12ZM5.92896 18.6569C6.31946 18.2664 6.95264 18.2664 7.34314 18.6569C7.53839 18.8521 7.63605 19.108 7.63605 19.364C7.63605 19.6199 7.53839 19.8758 7.34314 20.071L5.2218 22.1924C4.8313 22.5829 4.19812 22.5829 3.80762 22.1924C3.61237 21.9971 3.51471 21.7412 3.51471 21.4853C3.51471 21.2294 3.61237 20.9734 3.80762 20.7782L5.92896 18.6569ZM22.1924 20.7782C22.3876 20.9734 22.4853 21.2294 22.4853 21.4853C22.4853 21.7412 22.3876 21.9971 22.1924 22.1924C21.8019 22.5829 21.1687 22.5829 20.7782 22.1924L18.6569 20.071C18.4616 19.8758 18.364 19.6199 18.364 19.364C18.364 19.108 18.4616 18.8521 18.6569 18.6569C19.0474 18.2664 19.6805 18.2664 20.071 18.6569L22.1924 20.7782ZM12 22C12 21.4477 12.4477 21 13 21C13.5523 21 14 21.4477 14 22L14 25C14 25.5523 13.5523 26 13 26C12.4477 26 12 25.5523 12 25L12 22Z" clip-rule="evenodd" fill="#FFFFFF" fill-opacity="1.000000" fill-rule="evenodd" mask="url(#mask_0_244)"/>
	<path id="Combined Shape" d="" fill="#979797" fill-opacity="0.000000" fill-rule="nonzero"/>
</svg>
